<?xml version="1.0" standalone="no"?>
<!DOCTYPE svg PUBLIC "-//W3C//DTD SVG 20010904//EN"
 "http://www.w3.org/TR/2001/REC-SVG-20010904/DTD/svg10.dtd">
<svg version="1.0" xmlns="http://www.w3.org/2000/svg"
 width="700.000000pt" height="700.000000pt" viewBox="0 0 700.000000 700.000000"
 preserveAspectRatio="xMidYMid meet">
<metadata>
Created by potrace 1.11, written by Peter Selinger 2001-2013
</metadata>
<g transform="translate(0.000000,700.000000) scale(0.100000,-0.100000)"
fill="#000000" stroke="none">
<path d="M1296 6989 c-460 -68 -834 -434 -921 -904 -11 -58 -14 -5047 -3
-5130 20 -158 85 -333 174 -466 166 -247 412 -408 724 -475 19 -5 521 -9 1115
-11 1232 -4 1139 -10 1232 82 39 40 55 66 67 106 44 154 -42 309 -195 347 -20
5 -488 10 -1070 10 -569 1 -1043 3 -1054 6 -11 3 -38 10 -59 15 -66 16 -162
71 -219 125 -85 80 -127 150 -157 258 -20 71 -20 110 -20 2547 l0 2474 21 79
c21 79 67 160 128 230 70 80 213 152 325 164 34 4 835 7 1781 7 1550 0 1726
-2 1782 -16 194 -50 340 -194 399 -393 17 -55 18 -148 19 -1419 l1 -1360 24
-53 c90 -206 377 -216 487 -17 l33 60 -1 1380 c0 1108 -2 1395 -13 1455 -69
384 -329 699 -694 839 -183 70 -21 65 -2032 67 -998 1 -1841 -2 -1874 -7z"/>
<path d="M1699 5775 c-72 -20 -93 -31 -133 -71 -56 -57 -80 -115 -79 -196 2
-158 123 -274 280 -269 104 3 189 59 234 154 79 168 -21 356 -205 385 -35 6
-68 5 -97 -3z"/>
<path d="M2790 5780 c-171 -21 -285 -206 -223 -362 36 -93 104 -152 197 -172
80 -18 1808 -14 1861 4 204 68 259 316 102 462 -80 74 -37 71 -1017 72 -481 1
-895 -1 -920 -4z"/>
<path d="M1675 4676 c-87 -32 -136 -78 -169 -160 -56 -136 3 -278 144 -351 53
-28 163 -25 225 6 133 66 192 237 127 365 -61 119 -210 182 -327 140z"/>
<path d="M2755 4681 c-148 -36 -239 -203 -191 -349 22 -64 82 -134 144 -164
l47 -23 930 0 930 0 45 23 c128 67 188 207 143 337 -22 67 -93 140 -159 164
-54 21 -70 21 -957 20 -496 -1 -915 -4 -932 -8z"/>
<path d="M1688 3585 c-122 -31 -211 -150 -202 -271 5 -83 24 -125 78 -179 202
-202 532 -8 452 267 -40 137 -186 219 -328 183z"/>
<path d="M2741 3580 c-94 -31 -160 -101 -181 -191 -30 -125 27 -250 144 -312
l41 -22 927 -3 927 -2 53 24 c65 29 115 77 140 134 62 139 7 292 -130 359
l-57 28 -909 1 c-802 0 -914 -2 -955 -16z"/>
<path d="M2810 2499 c-78 -7 -128 -29 -179 -79 -51 -51 -73 -102 -77 -177 -5
-116 50 -209 153 -259 l56 -28 241 -1 c153 -1 260 3 293 10 117 27 202 129
207 249 2 33 -3 78 -10 99 -30 85 -104 155 -189 178 -43 12 -389 18 -495 8z"/>
<path d="M1680 2491 c-119 -37 -201 -153 -195 -275 13 -249 329 -353 483 -158
140 176 20 437 -202 440 -33 0 -72 -3 -86 -7z"/>
<path d="M4431 2485 c-352 -66 -603 -328 -679 -710 -4 -16 -6 -95 -6 -175 0
-120 4 -159 23 -225 55 -195 171 -379 346 -550 123 -120 211 -192 475 -390 80
-60 147 -111 150 -114 3 -3 28 -24 55 -45 28 -22 91 -81 140 -132 115 -117
155 -139 255 -139 99 1 137 21 243 131 45 47 123 118 172 157 50 39 92 74 95
77 3 3 77 59 165 124 479 358 679 601 751 916 24 103 24 299 1 405 -73 327
-289 563 -603 656 -90 27 -327 34 -424 14 -138 -30 -249 -78 -344 -149 l-58
-44 -58 44 c-72 55 -186 110 -282 135 -97 27 -314 34 -417 14z m301 -551 c102
-36 166 -125 184 -259 13 -90 73 -179 148 -217 56 -28 150 -35 212 -14 89 29
168 122 180 212 23 160 106 267 225 289 248 47 415 -96 405 -348 -2 -66 -9
-95 -33 -147 -51 -109 -152 -227 -303 -352 -93 -77 -119 -97 -260 -203 -80
-60 -180 -137 -223 -172 l-79 -63 -46 38 c-26 20 -49 40 -52 43 -3 3 -90 70
-195 149 -288 218 -336 258 -457 388 -27 28 -48 53 -48 56 0 3 -14 26 -31 51
-82 122 -94 288 -29 415 22 43 73 96 115 118 74 39 202 46 287 16z"/>
</g>
</svg>
